<svg fill="none" height="15" viewBox="0 0 100 15" width="100" xmlns="http://www.w3.org/2000/svg"><g fill="#fab73c"><path d="m3.43707 14.663c-.36744.1885-.78439-.1418-.71014-.5635l.7901-4.5026-3.353629-3.19465c-.313183-.2989-.150404-.8453.269395-.90432l4.662524-.66254 2.07901-4.118965c.18753-.371249.6949-.371249.88243 0l2.07904 4.118965 4.6625.66254c.4198.05902.5826.60542.2684.90432l-3.3526 3.19465.7901 4.5026c.0742.4217-.3427.752-.7102.5635l-4.17988-2.1475-4.178 2.1475z"/><path d="m24.5668 14.663c-.3674.1885-.7844-.1418-.7101-.5635l.7901-4.5026-3.3536-3.19465c-.3132-.2989-.1504-.8453.2694-.90432l4.6625-.66254 2.079-4.118965c.1875-.371249.6949-.371249.8824 0l2.079 4.118965 4.6626.66254c.4198.05902.5825.60542.2684.90432l-3.3527 3.19465.7901 4.5026c.0743.4217-.3427.752-.7101.5635l-4.1799-2.1475-4.178 2.1475z"/><path d="m45.6966 14.663c-.3675.1885-.7844-.1418-.7101-.5635l.7901-4.5026-3.3537-3.19465c-.3132-.2989-.1504-.8453.2694-.90432l4.6625-.66254 2.079-4.118965c.1876-.371249.695-.371249.8825 0l2.079 4.118965 4.6625.66254c.4198.05902.5826.60542.2685.90432l-3.3527 3.19465.7901 4.5026c.0742.4217-.3427.752-.7102.5635l-4.1799-2.1475-4.178 2.1475z"/><path d="m66.8264 14.663c-.3675.1885-.7844-.1418-.7102-.5635l.7901-4.5026-3.3536-3.19465c-.3132-.2989-.1504-.8453.2694-.90432l4.6625-.66254 2.079-4.118965c.1875-.371249.6949-.371249.8824 0l2.079 4.118965 4.6626.66254c.4198.05902.5826.60542.2684.90432l-3.3527 3.19465.7901 4.5026c.0743.4217-.3427.752-.7101.5635l-4.1799-2.1475-4.178 2.1475z"/><path d="m87.9562 14.663c-.3674.1885-.7844-.1418-.7101-.5635l.7901-4.5026-3.3536-3.19465c-.3132-.2989-.1504-.8453.2694-.90432l4.6625-.66254 2.079-4.118965c.1875-.371249.6949-.371249.8824 0l2.079 4.118965 4.6626.66254c.4198.05902.5825.60542.2684.90432l-3.3527 3.19465.7901 4.5026c.0743.4217-.3427.752-.7101.5635l-4.1799-2.1475-4.178 2.1475z"/></g></svg>